<svg height="471pt" viewBox="-40 0 471 471.93438" width="471pt" xmlns="http://www.w3.org/2000/svg" xmlns:xlink="http://www.w3.org/1999/xlink"><linearGradient id="a" gradientUnits="userSpaceOnUse" x1="45.06719" x2="423.63519" y1="511.854375" y2="133.286375"><stop offset="0" stop-color="#ee83ef"/><stop offset="1" stop-color="#41dfd0"/></linearGradient><path d="m281.621094 91.796875c1.792968-6.105469 1.074218-12.679687-2-18.253906-.703125-1.234375-1.503906-2.410157-2.402344-3.511719l3.664062-2.402344c14.730469-9.570312 23.609376-25.953125 23.585938-43.519531-.042969-13.21875-10.691406-23.960937-23.914062-24.109375-13.21875-.148438-24.109376 10.347656-24.449219 23.566406l-.863281 37.800782c-9.351563 1.242187-17.085938 7.902343-19.703126 16.96875l-71.65625 245.757812-8.601562 29.480469-17.214844 24.945312c-5.421875 7.824219-8.65625 16.953125-9.367187 26.445313 0 .226562 0 .449218-.046875.671875-.117188 1.867187-.140625 3.734375-.066406 5.601562v1.257813c.125 2.117187.371093 4.226562.738281 6.316406l6.757812 37.121094h-127.613281c-4.417969 0-8 3.582031-8 8 0 4.417968 3.582031 8 8 8h136c.703125-.042969 1.398438-.183594 2.0625-.414063.960938.25 1.945312.390625 2.9375.414063 3.46875.003906 6.78125-1.449219 9.132812-4l29.601563-31.933594c1.949219-2.136719 3.722656-4.429688 5.304687-6.851562.222657-.351563.480469-.679688.703126-1.039063 1.429687-2.300781 2.683593-4.707031 3.753906-7.199219.214844-.503906.4375-1 .636718-1.511718 1.019532-2.519532 1.84375-5.113282 2.464844-7.761719.097656-.40625.175782-.796875.257813-1.222657.617187-2.839843 1-5.726562 1.144531-8.632812v-.101562c-.003906-.046876-.003906-.09375 0-.136719.054688-1.417969.101562-2.832031.046875-4.257813l-1.144531-30.253906 8.59375-29.480469zm-109.097656 259.859375 4.472656-15.363281 7.679687 2.242187 7.679688 2.238282-4.472657 15.351562-1.359374-.390625zm99.582031-327.722656c.179687-4.421875 3.839843-7.902344 8.265625-7.855469 4.425781.046875 8.015625 3.605469 8.097656 8.03125.019531 12.160156-6.125 23.503906-16.320312 30.128906l-.753907.488281zm-21.238281 58.90625c.589843-2.035156 1.964843-3.746094 3.824218-4.761719 1.855469-1.039063 4.050782-1.28125 6.085938-.671875 4.242187 1.234375 6.679687 5.671875 5.449218 9.914062l-69.382812 238.09375-7.679688-2.238281-7.679687-2.242187zm-84.96875 283.550781 6.023437 1.75 13.601563 4 .902343 24-15.160156 6.496094c-5.4375 2.355469-11.761719 1.132812-15.933594-3.070313l-6.929687-6.929687c.796875-1.722657 1.722656-3.382813 2.769531-4.964844zm-14.277344 85.542969-6.546875-36c-.210938-1.492188-.335938-2.996094-.367188-4.503906 8.804688 8.363281 21.75 10.664062 32.894531 5.847656l5.378907-2.296875c-.425781.929687-.847657 1.867187-1.34375 2.769531-.34375.617188-.640625 1.257812-1.015625 1.847656-1.214844 1.957032-2.605469 3.796875-4.160156 5.496094zm232.6875-100c0-4.417969-3.582032-8-8-8h-128c-4.417969 0-8 3.582031-8 8v22.402344c-10.332032 21.980468-10.796875 47.324218-1.273438 69.671874l9.929688 23.117188c1.273437 2.921875 4.15625 4.804688 7.34375 4.800781h112c3.1875.007813 6.074218-1.878906 7.351562-4.800781l9.917969-23.109375c9.617187-22.328125 9.152344-47.71875-1.269531-69.679687zm-16 16h-24v-8h24zm-40-8v32c0 4.417968-3.582032 8-8 8-4.417969 0-8-3.582032-8-8 0-4.417969-3.582032-8-8-8-4.417969 0-8 3.582031-8 8v20c0 2.210937-1.792969 4-4 4-2.210938 0-4-1.789063-4-4v-52zm-72 0h16v8h-16zm114.558594 77.730468-7.832032 18.269532h-101.449218l-7.839844-18.246094c-7.328125-17.148438-7.4375-36.523438-.304688-53.753906h18.882813v28c-.023438 10.5625 8.171875 19.324218 18.710937 20.003906 10.542969.679688 19.792969-6.957031 21.128906-17.433594 2.613282.949219 5.375 1.433594 8.160157 1.429688 13.253906 0 24-10.746094 24-24v-8h26.847656c7.160156 17.214844 7.054687 36.59375-.296875 53.730468zm0 0" fill="url(#a)"/></svg>