<?xml version="1.0" encoding="utf-8"?>
<!-- Generator: Adobe Illustrator 23.0.0, SVG Export Plug-In . SVG Version: 6.00 Build 0)  -->
<svg version="1.1" id="Capa_1" xmlns="http://www.w3.org/2000/svg" xmlns:xlink="http://www.w3.org/1999/xlink" x="0px" y="0px"
	 viewBox="0 0 24 24" style="enable-background:new 0 0 24 24;" xml:space="preserve">
<style type="text/css">
	.st0{fill:#F9F9F9;}
</style>
<path class="st0" d="M9,17V7l9,5.2L9,17z M13,2c5,0.5,9,4.8,9,10c0,1.5-0.3,2.9-0.9,4.1l1.7,1c0.7-1.6,1.2-3.3,1.2-5.1
	c0-6.3-4.8-11.5-11-12C13,0,13,2,13,2z M2.9,16.1C2.3,14.8,2,13.4,2,12c0-5.2,4-9.5,9-10V0C4.8,0.5,0,5.7,0,12
	c0,1.8,0.4,3.6,1.2,5.1C1.2,17.1,2.9,16.1,2.9,16.1z M20.1,17.8C18.3,20.3,15.3,22,12,22s-6.3-1.7-8.1-4.2l-1.7,1
	C4.3,22,7.9,24,12,24c4.1,0,7.7-2,9.9-5.2L20.1,17.8z"/>
</svg>
