<?xml version="1.0" encoding="utf-8"?>
<!-- Generator: Adobe Illustrator 23.0.0, SVG Export Plug-In . SVG Version: 6.00 Build 0)  -->
<svg version="1.1" id="Capa_1" xmlns="http://www.w3.org/2000/svg" xmlns:xlink="http://www.w3.org/1999/xlink" x="0px" y="0px"
	 viewBox="0 0 24 24" style="enable-background:new 0 0 24 24;" xml:space="preserve">
<style type="text/css">
	.st0{fill:#5C5A91;}
</style>
<path class="st0" d="M23.1,20.1l-5-5c1-1.5,1.5-3.3,1.5-5.3c0-5.4-4.4-9.8-9.8-9.8S0,4.4,0,9.8s4.4,9.8,9.8,9.8c1.8,0,3.6-0.5,5-1.4
	l5,5C22,25.4,25.3,22.2,23.1,20.1z M3,9.8C3,6.1,6.1,3,9.8,3s6.8,3,6.8,6.8s-3,6.8-6.8,6.8S3,13.6,3,9.8z M5.1,8.1
	C7,3.5,13.7,4,15,8.8C12.4,5.8,8,5.5,5.1,8.1z"/>
</svg>
